<mxfile host="app.diagrams.net" modified="2024-05-10T03:30:44.029Z" agent="Mozilla/5.0 (Windows NT 10.0; Win64; x64) AppleWebKit/537.36 (KHTML, like Gecko) Chrome/109.0.0.0 Safari/537.36" version="24.3.1" etag="c7dkuV69WIn5Fqvbx8Np" type="github">
  <diagram name="第 1 页" id="RN-QDeloZX5SvZhoghEH">
    <mxGraphModel>
      <root>
        <mxCell id="0" />
        <mxCell id="1" parent="0" />
      </root>
    </mxGraphModel>
  </diagram>
</mxfile>
